<svg id="Capa_1" enable-background="new 0 0 512 512" height="512" viewBox="0 0 512 512" width="512" xmlns="http://www.w3.org/2000/svg"><g><g><g><path d="m37.617 148v269.404l417.766 20v-289.404c0-8.284-6.716-15-15-15h-387.766c-8.284 0-15 6.716-15 15z" fill="#5b596d"/><path d="m459.383 133h-30c8.284 0 15 6.716 15 15v289.405l30-20v-269.405c0-8.284-6.716-15-15-15z" fill="#3e3e4d"/><path d="m469.5 480.012h-437c-13.807 0-25-11.193-25-25v-27.607c0-5.523 4.477-10 10-10h179.641l62.409 10 55.31-10h169.64c5.523 0 10 4.477 10 10v27.607c0 13.807-11.193 25-25 25z" fill="#edf5fa"/><path d="m494.5 417.405h-30c5.523 0 10 4.477 10 10v27.607c0 13.807-11.193 25-25 25h30c13.807 0 25-11.193 25-25v-27.607c0-5.523-4.477-10-10-10z" fill="#d0e7f2"/><path d="m304.859 448.708h-97.718c-5.523 0-10-4.477-10-10v-21.304h117.718v21.304c0 5.523-4.477 10-10 10z" fill="#d0e7f2"/><path d="m256 364.993c-3.466 0-6.821.523-10.003-.368-13.531-3.79-23.929-15.079-26.429-29.102-.378-2.122 9.424-4.307 9.424-6.538l-10-8.464v-12.118l10-10.059-10-4.941v-19.618l64.016-10v65.2c0 20.439-6.569 36.008-27.008 36.008z" fill="#978ecb"/><path d="m273.008 263.784v65.201c0 16.972-11.429 31.265-27.008 35.629 3.182.891 6.533 1.378 10 1.378 18.795 0 34.317-14.011 36.693-32.157.208-1.587-9.685-3.206-9.685-4.85l10-8.464v-12.118l-10-9.385 10-5.615v-19.618z" fill="#6e61b6"/><path d="m327.491 172.608c0-45.659-27.552-81.548-73.456-80.468-2.707.064-5.382-.738-8.019-.413-39.562 4.885-70.629 38.515-71.488 79.116-.447 21.159 7.173 40.529 19.995 55.252 11.678 13.409 19.767 29.56 24.231 46.771l.238.919h64.016l.555-2.141c4.436-17.106 13.021-32.762 24.485-46.212 12.124-14.225 19.443-32.669 19.443-52.824z" fill="#fee97d"/><path d="m254.035 91.14c-2.725.064-5.418.266-8.074.595 40.305 4.914 71.529 39.24 71.529 80.872 0 20.156-7.319 38.6-19.443 52.824-11.464 13.45-20.048 29.105-24.485 46.212l-.555 2.141h20l.555-2.141c4.436-17.107 13.021-32.762 24.485-46.212 12.124-14.225 19.443-32.669 19.443-52.824.001-45.659-37.551-82.548-83.455-81.467z" fill="#fedf30"/><circle cx="256" cy="174.232" fill="#6cf5c2" r="46.692"/></g></g><g><path d="m494.5 409.904h-12.617v-261.904c0-12.426-10.074-22.5-22.5-22.5h-127.857c-3.731-5.953-8.185-11.515-13.348-16.559-17.286-16.884-40.099-25.854-64.319-25.3-22.884.539-44.471 9.842-60.783 26.195-4.786 4.799-8.946 10.06-12.473 15.663h-127.986c-12.426 0-22.5 10.074-22.5 22.5v45.571c0 4.107 3.165 7.688 7.27 7.811 4.247.127 7.73-3.278 7.73-7.497v-45.884c0-4.142 3.358-7.5 7.5-7.5h120.424c-3.719 9.544-5.79 19.727-6.011 30.184-.471 22.199 7.285 43.628 21.838 60.337 10.241 11.76 17.93 26.411 22.285 42.448.229.844.339 1.719.339 2.594v52.133c0 24.905 20.381 45.717 45.282 45.29 24.186-.415 43.733-20.218 43.733-44.501v-52.985c0-.834.106-1.665.315-2.473 4.038-15.569 11.754-30.113 22.933-43.229 4.987-5.851 9.199-12.323 12.518-19.239 1.652-3.442.593-7.703-2.634-9.745-3.874-2.452-8.897-.924-10.812 3.092-2.772 5.812-6.301 11.249-10.489 16.162-11.835 13.886-20.261 29.251-25.077 45.718h-62.561c-5.079-16.945-13.5-32.461-24.521-45.115-12.097-13.89-18.543-31.706-18.152-50.168.258-12.184 3.527-23.93 9.406-34.383.01-.019.022-.037.033-.056 3.286-5.831 7.375-11.264 12.231-16.132 13.571-13.605 31.512-21.345 50.517-21.792 20.113-.496 39.112 6.998 53.484 21.034 5.139 5.019 9.435 10.654 12.857 16.731.128.251.266.495.421.728 5.888 10.743 9.017 22.854 9.017 35.477 0 1.133-.026 2.274-.077 3.394-.189 4.138 3.012 7.645 7.149 7.835 4.139.177 7.646-3.012 7.835-7.149.062-1.346.093-2.719.093-4.079 0-11.176-2.061-22.009-5.96-32.107h120.352c4.142 0 7.5 3.358 7.5 7.5v261.904h-318.061c-4.107 0-7.688 3.165-7.811 7.27-.127 4.247 3.278 7.73 7.497 7.73h41.131v13.804c0 9.665 7.835 17.5 17.5 17.5h97.719c9.665 0 17.5-7.835 17.5-17.5v-13.804h172.14c1.381 0 2.5 1.119 2.5 2.5v27.607c0 9.665-7.835 17.5-17.5 17.5h-447c-9.665 0-17.5-7.835-17.5-17.5v-27.607c0-1.381 1.119-2.5 2.5-2.5h98.009c4.107 0 7.688-3.165 7.811-7.27.127-4.247-3.278-7.73-7.497-7.73h-70.706v-183.02c0-4.107-3.165-7.688-7.27-7.811-4.247-.127-7.73 3.278-7.73 7.497v183.334h-12.617c-9.665 0-17.5 7.835-17.5 17.5v27.607c0 17.949 14.551 32.5 32.5 32.5h447c17.949 0 32.5-14.551 32.5-32.5v-27.607c0-9.669-7.835-17.504-17.5-17.504zm-268.008-89.383v-12.118h59.016v12.118zm59.016-27.119h-59.016v-12.118h59.016zm-29.508 65.09c-14.024 0-25.786-9.837-28.769-22.972h57.538c-2.983 13.135-14.745 22.972-28.769 22.972zm51.359 80.216c0 1.379-1.121 2.5-2.5 2.5h-97.719c-1.379 0-2.5-1.121-2.5-2.5v-13.804h102.719z"/><path d="m256 65.064c4.143 0 7.5-3.357 7.5-7.5v-25.576c0-4.143-3.357-7.5-7.5-7.5s-7.5 3.357-7.5 7.5v25.576c0 4.143 3.357 7.5 7.5 7.5z"/><path d="m170.771 79.775c1.324 2.604 3.959 4.104 6.692 4.104 1.143 0 2.304-.263 3.393-.815 3.692-1.877 5.164-6.392 3.288-10.085l-11.588-22.801c-1.878-3.691-6.391-5.163-10.085-3.288-3.692 1.877-5.164 6.392-3.288 10.085z"/><path d="m331.144 83.063c1.089.553 2.249.815 3.393.815 2.733 0 5.368-1.5 6.692-4.104l11.588-22.801c1.876-3.693.404-8.208-3.288-10.085-3.691-1.874-8.207-.404-10.085 3.288l-11.588 22.801c-1.877 3.695-.405 8.21 3.288 10.086z"/><path d="m256 120.039c-29.882 0-54.192 24.31-54.192 54.192s24.311 54.192 54.192 54.192 54.192-24.311 54.192-54.192-24.31-54.192-54.192-54.192zm0 93.385c-21.61 0-39.192-17.582-39.192-39.192s17.582-39.192 39.192-39.192 39.192 17.582 39.192 39.192-17.582 39.192-39.192 39.192z"/><path d="m271.689 159.335-20.383 20.384-11.116-10.624c-2.995-2.861-7.741-2.754-10.604.24-2.862 2.994-2.755 7.742.24 10.604l16.417 15.689c1.451 1.387 3.316 2.078 5.181 2.078 1.922 0 3.842-.734 5.305-2.196l25.567-25.567c2.929-2.93 2.929-7.678 0-10.607-2.93-2.929-7.678-2.929-10.607-.001z"/></g></g></svg>